<?xml version="1.0" encoding="UTF-8" standalone="no"?>
<svg
   xmlns:dc="http://purl.org/dc/elements/1.1/"
   xmlns:cc="http://creativecommons.org/ns#"
   xmlns:rdf="http://www.w3.org/1999/02/22-rdf-syntax-ns#"
   xmlns:svg="http://www.w3.org/2000/svg"
   xmlns="http://www.w3.org/2000/svg"
   version="1.1"
   id="svg4706"
   height="210mm"
   width="297mm">
  <defs
     id="defs4708" />
  <metadata
     id="metadata4712">
    <rdf:RDF>
      <cc:Work
         rdf:about="">
        <dc:format>image/svg+xml</dc:format>
        <dc:type
           rdf:resource="http://purl.org/dc/dcmitype/StillImage" />
        <dc:title></dc:title>
      </cc:Work>
    </rdf:RDF>
  </metadata>
  <g
     id="layer1">
    <path
       id="path3056-5-0-3-1-2"
       d="m 502.26741,624.73231 c 71.99331,-11.19163 146.69647,-21.06106 210.94194,-46.15357 36.93521,-9.87011 33.19338,-41.89708 -4.79661,-49.32261 -28.93692,-3.83083 -55.57508,-28.62755 -29.97595,-44.83322 24.38584,-12.69712 54.0192,-22.42894 84.82195,-26.2969 36.19609,-3.19508 73.43958,-4.2887 108.53922,3.61176 21.37958,2.49785 -28.27372,-5.05852 -37.16199,-1.65706 -39.79454,2.01346 -87.32404,12.01953 -100.82201,39.42469 -7.11181,24.06795 37.20969,26.93798 61.59965,34.28501 32.45772,6.42289 26.72349,29.78836 -2.14203,37.14926 -61.65522,26.34229 -131.45381,44.629 -203.07378,55.50491 C 341.59634,648.05423 235.28902,645.12593 64.980611,647.2763 261.6472,634.37728 225.07259,652.56023 502.26741,624.73231 Z"
       style="fill:#005d70;stroke:#005d70;stroke-width:1.11267185px;stroke-linecap:butt;stroke-linejoin:miter;stroke-opacity:1;fill-opacity:1" />
    <path
       id="path3058-1-3-3-3-3"
       d="m 756.25218,503.50642 26.49586,-19.54045 c 0,0 24.72958,-16.74909 56.52477,-15.3534 20.10897,0.88276 45.92626,6.97879 61.82378,5.5831 15.89752,-1.3958 58.29106,-22.33206 58.29106,-22.33206 2.43946,0 -13.67105,48.85132 -102.45088,32.10236 -37.83733,-7.13844 -79.48791,8.37448 -100.68459,19.54045 z"
       style="fill:#005d70;stroke:#005d70;stroke-width:1.22849715px;stroke-linecap:butt;stroke-linejoin:miter;stroke-opacity:1;fill-opacity:1" />
    <flowRoot
       transform="translate(0,24.979091)"
       style="font-style:normal;font-weight:normal;font-size:83.79278564px;line-height:125%;font-family:Sans;letter-spacing:0px;word-spacing:0px;fill:#005d70;fill-opacity:1;stroke:none;"
       id="flowRoot4119-9-1-0-2"
       xml:space="preserve"><flowRegion
         id="flowRegion4121-9-7-0-9"><rect
           style="fill:#005d70;fill-opacity:1;"
           y="178.16757"
           x="3.8499603"
           height="459.23972"
           width="1168.51"
           id="rect4123-4-5-8-3" /></flowRegion><flowPara
         style="font-size:62.84458542px;fill:#005d70;fill-opacity:1;"
         id="flowPara4125-3-8-5-5" /><flowPara
         style="font-size:146.63737488px;fill:#005d70;fill-opacity:1;"
         id="flowPara4129-5-1-8-1">International </flowPara></flowRoot>    <flowRoot
       transform="translate(0,24.979091)"
       style="font-style:normal;font-weight:normal;font-size:83.79278564px;line-height:125%;font-family:Sans;letter-spacing:0px;word-spacing:0px;fill:#005d70;fill-opacity:1;stroke:none;"
       id="flowRoot4149-1-2-9-3"
       xml:space="preserve"><flowRegion
         id="flowRegion4151-8-7-4-3"><rect
           style="fill:#005d70;fill-opacity:1;"
           y="209.23541"
           x="339.73459"
           height="132.66927"
           width="821.52887"
           id="rect4153-4-6-2-3" /></flowRegion><flowPara
         style="font-size:75.41350555px;fill:#005d70;fill-opacity:1;"
         id="flowPara4155-4-2-6-0">Stellenbosch</flowPara></flowRoot>    <flowRoot
       transform="translate(0,24.979091)"
       style="font-style:normal;font-weight:normal;font-size:115.21508026px;line-height:125%;font-family:Sans;letter-spacing:0px;word-spacing:0px;fill:#005d70;fill-opacity:1;stroke:none;"
       id="flowRoot4149-4-1-7-5-8"
       xml:space="preserve"><flowRegion
         id="flowRegion4151-7-8-2-2-4"><rect
           style="font-size:115.21508026px;fill:#005d70;fill-opacity:1;"
           y="396.87918"
           x="54.717113"
           height="132.66927"
           width="821.52887"
           id="rect4153-1-1-1-9-0" /></flowRegion><flowPara
         id="flowPara4184-5-0-2-9"
         style="font-size:115.21508026px;fill:#005d70;fill-opacity:1;">Fellowship</flowPara></flowRoot>    <path
       id="path4249-9-5-8"
       d="m 698.79959,62.226513 c -8.22145,-0.653311 -16.78981,0.747201 -23.9595,6.284459 l -2.88037,2.225746 -0.32732,3.600471 c -0.19021,2.043664 -1.97091,4.84228 -5.62983,9.164835 -3.22416,3.808948 -7.36461,8.924958 -10.14678,15.645684 -0.0587,0.14161 -0.1391,0.249472 -0.19628,0.392779 -4.78801,6.453533 -12.20042,18.128483 -15.77661,25.137833 l -0.45825,0.98195 -0.26185,1.04741 c -1.00264,4.6342 -2.76866,8.84859 -3.66593,10.14677 -5.49597,-9.16261 -10.61343,-14.80056 -18.72245,-20.7518 l -1.9639,-1.44018 -2.42213,-0.19629 c -1.14241,-0.0855 -0.83986,-0.17932 -0.78556,-0.13092 0.0543,0.0484 -0.12108,-0.0591 -0.5237,-0.91649 -0.20132,-0.42868 -0.42217,-1.03735 -0.91649,-1.96389 -0.49431,-0.92654 -1.13627,-2.56877 -3.92778,-4.18964 -0.66079,-0.38367 -1.5565,-0.29543 -2.35668,-0.45824 -2.68631,-3.59555 -5.80621,-6.05145 -8.18289,-7.528261 -3.54847,-2.204923 -4.82497,-2.774714 -6.21899,-5.106123 l -6.41539,-10.73595 -1.24379,1.636578 c -0.31915,-0.341435 -0.37324,-0.575698 -0.7201,-0.916484 -2.72938,-2.681599 -6.67636,-5.661292 -12.2416,-6.022606 -4.943,-0.320926 -9.8198,2.238901 -13.87818,6.088069 -1.17226,-0.774287 -1.37491,-0.828082 -2.94584,-2.094819 -3.30728,-2.666873 -7.20086,-6.044183 -11.25966,-9.099373 -3.65424,-2.750644 -7.36982,-5.270922 -11.97975,-6.7427 -4.46056,-2.593596 -10.16016,-2.901661 -14.0091,-1.440189 -4.35748,1.654573 -7.19215,4.13044 -9.62308,6.08807 -2.24577,1.80852 -3.92056,2.971376 -4.64788,3.338618 l -0.58917,-0.392778 c -3.74285,-2.117004 -8.90512,-3.037551 -13.09262,-1.178336 -4.1875,1.859215 -6.13592,5.094287 -7.39733,7.528258 -1.26142,2.43397 -1.98348,4.577076 -2.61853,6.153532 -0.63504,1.576457 -1.33373,2.470148 -0.72009,1.832967 l -2.81491,2.880377 0.5237,3.99325 c 0.74959,5.74136 0.29038,5.3225 -1.57111,7.26641 -1.6224,1.69422 -5.70032,4.91009 -9.2303,10.14678 -0.0373,0.0551 -0.0939,0.0752 -0.13093,0.13092 -10.31877,9.97365 -14.88828,23.50649 -22.06107,34.43359 l -0.45834,0.71999 -0.32732,0.85102 c 0.67059,-1.74764 -1.08327,1.30434 -4.58242,4.12418 -3.49914,2.81984 -8.54929,6.36578 -14.53281,10.27771 -11.96703,7.82383 -27.72332,17.16332 -43.33658,26.51256 -15.61325,9.34923 -31.07725,18.74188 -43.00926,26.83987 -5.96601,4.04899 -11.06737,7.70537 -14.99106,11.19419 -1.96184,1.7444 -3.65095,3.47003 -5.10612,5.36798 -0.97998,1.27817 -1.78208,2.81971 -2.42213,4.71334 0.0189,-0.004 -0.89535,0.0687 -2.4876,-0.32732 -1.59225,-0.396 -3.57001,-1.11622 -6.219,-1.70204 -1.32449,-0.29292 -2.90109,-0.60999 -5.04066,-0.39278 -1.83715,0.18644 -4.17581,1.21418 -6.08807,2.88038 l -0.13092,-0.13093 c -0.36272,0.30803 -0.49985,0.54654 -0.85102,0.85103 -10.50946,9.11175 -12.84294,25.43425 -17.8543,30.32758 -12.69425,18.50599 -4.58256,2.57968 -20.00052,18.01538 -10.77422,10.78663 23.78222,-8.0078 29.541,-14.89131 5.33105,-6.37224 9.88864,-12.33353 18.32967,-19.83533 1.10808,0.32985 2.23141,0.67502 4.25511,1.17834 2.74494,0.6827 6.33492,1.34623 10.53956,0.32731 4.20463,-1.01892 8.44361,-4.26511 10.86687,-8.64113 l 0.91649,-1.63657 0.0654,-0.7201 c 0.46984,-0.59237 1.41324,-1.5686 2.81491,-2.81491 2.93373,-2.60858 7.57635,-6.11778 13.22355,-9.9504 11.29438,-7.66525 26.70486,-16.91879 42.28917,-26.2507 15.5843,-9.33192 31.39458,-18.69 43.86028,-26.83987 6.23284,-4.07493 11.57905,-7.82424 15.84208,-11.25966 3.75462,-3.02571 6.64525,-5.44104 8.77205,-9.68854 l 0.13093,0.0654 c 8.5601,-13.04055 13.69863,-25.79709 19.76986,-31.61868 l 0.91648,-0.85102 0.65463,-1.11287 c 1.71993,-3.12541 4.20736,-4.62343 8.11743,-8.70659 3.35835,-3.50702 6.20768,-9.74167 6.21899,-17.282265 0.82926,-1.436103 1.41545,-2.794301 1.89843,-3.99325 0.54443,-1.351452 0.91312,-2.197465 1.30927,-3.142229 4.19341,1.861603 9.18155,1.918561 12.56891,0.589168 4.29558,-1.685827 7.02224,-4.151765 9.42669,-6.088069 2.25575,-1.816565 3.99822,-2.999656 4.71335,-3.338619 l 1.11287,0.85102 1.7675,0.458242 c 0.69693,0.172823 3.99625,1.825929 7.39734,4.386029 3.40108,2.5601 7.15362,5.830616 10.80141,8.772057 3.64779,2.94144 6.62503,5.650946 11.58697,7.266406 2.48098,0.80772 6.94596,1.27099 10.53956,-1.57112 2.11971,-1.676417 3.04706,-3.625521 3.60047,-5.56436 0.0105,0.01047 0.60327,-0.453068 0.52371,-0.458242 -0.30729,-0.02095 0.43614,0.06431 1.63657,1.243799 1.20044,1.179425 2.53371,3.050602 3.7314,4.778803 0.59885,0.86412 1.04743,1.62135 2.02936,2.74946 0.38955,0.44753 1.19834,1.14716 2.35667,1.89843 3.33671,3.98105 7.12578,6.59746 9.36123,7.9865 2.76998,1.72118 3.51575,1.98509 4.90973,5.56436 l 5.04066,12.96169 4.12417,-4.7788 c 1.8172,1.49985 4.21817,2.51933 6.87363,3.20769 6.97194,5.18649 9.50248,7.66804 14.59827,16.69309 l 0.85103,1.57111 1.44018,1.04741 c 3.73934,2.762 8.02312,4.60699 12.63438,4.2551 4.61127,-0.35188 8.44778,-3.08441 10.80142,-5.89168 4.31499,-5.14663 5.80627,-10.94899 7.00455,-16.36577 2.85017,-5.45698 10.59715,-17.85 14.14003,-22.58477 l 0.85102,-1.11287 0.39278,-1.30927 c 1.31465,-4.13718 4.43551,-7.93358 8.24835,-12.437987 3.04409,-3.596219 6.72035,-7.919884 8.51021,-13.747253 3.9436,-1.831187 9.63441,-2.138015 15.84207,-0.720095 7.0877,1.618919 13.936,5.558185 16.82402,8.182889 2.21798,4.014094 5.59749,6.260327 8.11743,7.855574 3.1177,1.973655 5.52791,3.616873 5.62982,3.731397 l 0.0654,-0.06536 c 3.64183,4.310865 7.41305,6.749005 9.55762,8.248355 2.19084,1.53169 2.77281,1.9155 4.05871,4.45149 l 1.37473,2.68399 2.74945,1.17833 c 1.43907,0.63105 2.5797,2.14304 4.7788,6.48085 1.8142,3.57856 4.49383,8.55765 8.44475,13.55086 -0.12171,4.17315 0.48576,8.13515 2.35667,11.25965 2.50758,4.1878 6.01054,6.56211 8.83752,8.18289 2.82698,1.62079 5.19844,2.70651 6.21899,3.40409 0.12758,0.0871 0.053,0.0168 0.13093,0.0653 -1.07873,14.59673 1.91228,28.40372 10.01586,39.9325 0.19398,0.27597 0.324,0.57766 0.5237,0.85102 5.83426,10.46716 10.69969,18.58054 18.59152,25.26876 0.28718,0.59696 0.47588,1.44873 0.78556,1.89843 1.40722,2.04356 2.81091,3.07406 4.32057,4.12417 3.01928,2.10021 6.56057,3.7079 10.53956,4.9752 3.97898,1.2673 8.31159,2.21026 12.89623,2.02936 4.05538,-0.16005 8.71376,-1.45676 12.37253,-4.90974 l 0.0654,0.0654 c 1.31274,-0.99347 3.75647,-1.55291 8.11742,-1.44019 4.36096,0.1127 9.9336,0.97382 16.16939,0.19629 l 1.63658,-0.26186 1.50565,-0.78555 c 4.84722,-2.79403 7.65332,-3.21299 8.96845,-3.07677 1.31512,0.13616 2.02439,0.52463 3.46954,2.22575 2.89031,3.40221 5.89845,12.06873 10.14678,20.42449 2.91746,10.10405 6.83691,17.09909 11.97975,23.10848 2.37473,8.86423 7.52405,13.96821 11.25966,17.21679 0.76052,4.2774 3.09776,8.31591 6.28446,10.4741 4.47325,3.02949 23.19581,4.86809 27.91561,4.66831 l -7.04124,-11.70154 c -1.79679,0.076 -10.14244,-6.54585 -10.66213,-6.71392 l 0.65463,-3.66593 -3.46954,-3.07677 c -4.78773,-4.27774 -8.1406,-6.27599 -9.22998,-12.50324 l -0.45825,-2.42214 -1.63657,-1.83296 c -4.96774,-5.39326 -7.18723,-8.94346 -10.01586,-19.50801 l -0.19629,-0.85102 -0.39277,-0.78556 c -3.24878,-6.38979 -5.77138,-15.92733 -12.37253,-23.69765 -3.30058,-3.88515 -8.35655,-7.3535 -14.46735,-7.98649 -5.35503,-0.55471 -10.90012,1.16147 -16.69309,4.12417 -3.12537,0.27842 -7.5946,-0.19021 -12.89624,-0.32731 -5.59748,-0.14476 -12.59847,0.20969 -18.72245,4.84427 l -0.78555,0.58916 -0.65463,0.78556 c 0.33822,-0.41343 0.26589,-0.004 -1.50566,0.0654 -1.77154,0.07 -4.55679,-0.35702 -7.13548,-1.17834 -1.08103,-0.3443 -1.61374,-0.75681 -2.55306,-1.17833 l 0.39278,-0.65463 -6.21899,-4.58242 c -6.78848,-5.0441 -10.14059,-10.97468 -16.82402,-22.97755 l -0.26186,-0.45824 -0.32731,-0.39278 c -6.41325,-8.77903 -8.76062,-18.92521 -7.39733,-31.68414 l 0.13092,-1.04741 -0.13092,-1.04741 c -0.76074,-5.2112 -4.47615,-9.00113 -7.39733,-10.99781 -2.92119,-1.99667 -5.46101,-3.0891 -7.26641,-4.12417 -1.8054,-1.03507 -2.62577,-1.80054 -2.88038,-2.22575 -0.2546,-0.4252 -0.61472,-0.91233 -0.0654,-3.7314 l 0.78556,-4.25509 -3.0113,-3.14223 c -3.47164,-3.61773 -5.39917,-7.85451 -7.85557,-12.69985 -2.1412,-4.22357 -5.16342,-9.39643 -10.60503,-12.7653 -2.49464,-3.732803 -5.48042,-6.5681 -7.79011,-8.182891 -2.83176,-1.979772 -4.36477,-2.888002 -6.41538,-5.367975 l -0.13093,-0.130927 -0.0654,-0.06536 c -3.4134,-3.836076 -6.92658,-5.28435 -9.2303,-6.742701 -2.30371,-1.45835 -2.65719,-2.478025 -2.42213,-1.70204 l -0.65463,-1.963894 -1.44019,-1.505651 c -6.13433,-6.173455 -15.30421,-10.726859 -25.66154,-13.092623 -2.58932,-0.59143 -5.31148,-1.026021 -8.05196,-1.243799 z"
       style="color:#000000;font-style:normal;font-variant:normal;font-weight:normal;font-stretch:normal;font-size:medium;line-height:normal;font-family:Sans;-inkscape-font-specification:Sans;text-indent:0;text-align:start;text-decoration:none;text-decoration-line:none;letter-spacing:normal;word-spacing:normal;text-transform:none;direction:ltr;block-progression:tb;writing-mode:lr-tb;baseline-shift:baseline;text-anchor:start;display:inline;overflow:visible;visibility:visible;fill:#005d70;fill-opacity:1;stroke:none;stroke-width:8;marker:none;enable-background:accumulate" />
    <flowRoot
       transform="translate(0,24.979091)"
       style="font-style:normal;font-weight:normal;font-size:40px;line-height:125%;font-family:Sans;letter-spacing:0px;word-spacing:0px;fill:#005d70;fill-opacity:1;stroke:none;stroke-width:1px;stroke-linecap:butt;stroke-linejoin:miter;stroke-opacity:1;"
       id="flowRoot4091"
       xml:space="preserve"><flowRegion
         id="flowRegion4093"><rect
           style="fill:#005d70;fill-opacity:1;"
           y="141.51962"
           x="495.39752"
           height="71.451561"
           width="0"
           id="rect4095" /></flowRegion><flowPara
         id="flowPara4097" /></flowRoot>    <path
       id="path4802"
       d="m 1009.0805,308.45773 -14.06251,6.4308 c 0.23682,5.84838 0.516,11.72291 0.86688,17.56708 0.28553,5.25816 0.48365,10.52837 0.67422,15.78943 -1.58148,0.11647 -3.13949,0.27513 -4.71961,0.41827 -5.24949,0.21415 -10.49396,0.6019 -15.7481,0.41827 l -12.81036,8.36527 c 5.48136,-0.13847 10.94474,-0.55739 16.42231,-0.78424 5.69902,-0.38882 11.38933,-0.74088 17.09656,-0.99339 0.35599,12.2671 0.55812,24.53635 0.62608,36.8072 0.0959,14.97568 -0.40231,29.94247 -0.81872,44.91105 -0.076,3.97175 -0.16528,7.94975 -0.28894,11.9205 l 13.62909,-6.27394 c -0.12,-3.88338 -0.2102,-7.77488 -0.289,-11.65909 -0.4374,-14.68149 -0.9992,-29.3336 -1.0595,-44.02226 -0.077,-10.63615 -0.086,-21.30851 -0.096,-31.94487 2.1183,-0.002 4.2388,-0.0188 6.357,0 2.4351,0.0126 4.8865,0.0985 7.3202,0 1.9155,-0.16968 3.743,-0.5696 5.5865,-1.04567 5.8538,-1.54644 12.1836,-5.90477 16.4223,-8.10385 0.7804,-0.40487 0.5016,-0.20613 1.1077,-0.83653 0.4568,-0.48465 0.8632,-0.95764 1.204,-1.5162 l -9.3911,3.7121 c 4.1987,-2.15454 7.746,-4.0823 3.1304,-1.8822 -1.8503,0.3936 -3.6043,0.98361 -5.4902,1.2548 -2.4088,0.41094 -4.8804,0.0503 -7.3202,0.20906 -5.2047,0.0693 -10.4485,0.18665 -15.6518,0.3137 -1.0957,0.031 -2.18,0.11647 -3.2748,0.1567 -8e-4,-7.00954 -0.01,-14.00823 0,-21.01775 0.1041,-6.06708 0.2894,-12.13233 0.5779,-18.19445 z"
       style="opacity:0.98000004;fill:#005d70;fill-opacity:1;stroke:#005d70;stroke-width:4.1418047;stroke-miterlimit:4;stroke-dasharray:none;stroke-opacity:1" />
  </g>
</svg>
